<?xml version="1.0" encoding="utf-8"?>
<!-- Svg Vector Icons : http://www.onlinewebfonts.com/icon -->
<!DOCTYPE svg PUBLIC "-//W3C//DTD SVG 1.1//EN" "http://www.w3.org/Graphics/SVG/1.1/DTD/svg11.dtd">
<svg version="1.1" xmlns="http://www.w3.org/2000/svg" xmlns:xlink="http://www.w3.org/1999/xlink" x="0px" y="0px" viewBox="0 0 1000 1000" enable-background="new 0 0 1000 1000" xml:space="preserve">
<metadata> Svg Vector Icons : http://www.onlinewebfonts.com/icon </metadata>
<g><path d="M990,173.3C990,83.1,916.9,10,826.7,10H173.3C83.1,10,10,83.1,10,173.3v653.3C10,916.9,83.1,990,173.3,990h653.3c90.2,0,163.3-73.1,163.3-163.3V173.3z M908.3,797c0,61.5-49.9,111.4-111.4,111.4H203c-61.5,0-111.4-49.9-111.4-111.4V203c0-61.5,49.9-111.4,111.4-111.4H797c61.5,0,111.4,49.9,111.4,111.4L908.3,797L908.3,797z"/><path d="M661.7,738.4H321.8c-20.2,0-36.6,17.3-36.6,38.7c0,21.4,16.4,38.7,36.6,38.7h339.9c20.2,0,36.6-17.3,36.6-38.7C698.3,755.7,681.9,738.4,661.7,738.4z M427.3,565.6c0,35.6,26,56.6,58.1,56.6h0c32.1,0,58.1-21,58.1-56.6c0-35.6-58.1-98.3-58.1-98.3S427.3,530,427.3,565.6z M454.3,600c-5.1,0-9.3-5.5-9.3-12.4c0-6.8,4.1-12.4,9.3-12.4c5.1,0,9.3,5.5,9.3,12.4C463.6,594.4,459.4,600,454.3,600z M766.9,585.8c-15.2-17.5-29.6-34.1-30.5-63.7c1.2-0.4,2.3-0.8,3.5-1.3c11.5-5.1,20.1-15.9,21.6-29.4l6.8-62.9c1.8-16.6-7.8-31.8-22.6-37.7l0.2-1.5l3.7-34.4c0.9-8.5-1.5-16.1-6.9-22.1c-13-14.4-39.7-14.5-42.7-14.4l0.2,20.5c6.6-0.1,21.9,1.8,27.3,7.7c1.1,1.2,2.1,2.8,1.7,6.1l-3.9,35.4l-0.1,0.7c-15.3,2.9-27.5,15.5-29.3,31.8l-6.8,62.9c-1.4,12.9,4.2,25,13.7,32.5c0.9,0.7,1.8,1.4,2.8,2c-0.4,43.5,20.7,67.9,38.1,87.9c16.4,18.8,24.7,29.5,21.1,48.5c-1.3,7-4.3,11.4-9.7,14.3c-15.6,8.3-47.1,2-70.2-5.9c0.1-1.9,0.2-3.8,0.3-5.8c-0.3-0.1-0.5-0.2-0.8-0.3c0.1-22.5,0.2-49.7,0.3-79.1c-0.3-7.1-0.6-11.4-0.6-11.4l0.6-0.5c0.2-128.7-0.1-293.1-0.1-307.3c0-8.4-0.2-16.9-0.7-25.2c-1.7-25.8-24.3-49.9-51.1-48.6c-89.3-0.4-178.7,0-268-0.4c-13.2,0-26.8-0.4-38.7,6.3c-18.3,9.7-28.1,30.9-27.2,51.2c0.4,143.8,0,287.5,0.4,431.3c-0.4,23.7,16.6,46.1,39.6,52c102.5,0,204.6,0.4,307.1,0c10.8-3.7,20.2-10.5,27.1-19.3c0.1-1.4,1-2.8,2.9-4.3c0.1-0.1,0.1-0.1,0.2-0.2c1.6-2.4,2.9-5,4-7.7c11.1,3.5,25.3,7.2,40.1,8.9c17.2,1.9,35,0.9,49.1-6.6c13.6-7.2,22.4-19.6,25.4-35.7C801.6,625.6,783.1,604.5,766.9,585.8z M487.1,681.3c-69.8,0-126.4-56.3-126.4-125.7c0-69.4,56.6-125.7,126.4-125.7c69.8,0,126.4,56.3,126.4,125.7C613.6,625.1,557,681.3,487.1,681.3z M633.8,402.8H349.8V377h283.9V402.8z M633.8,362.4c-94.6,1.7-188.9,0.8-283.5,0.4c-0.4-38.2-0.4-76.3,0.4-114.5c94.2,0,188.5-0.4,283.1,0C633.3,286.5,633.3,324.2,633.8,362.4z"/></g>
</svg>